<?xml version="1.0" encoding="UTF-8"?> <svg xmlns="http://www.w3.org/2000/svg" width="25" height="24" viewBox="0 0 25 24" fill="none"><rect width="24.7363" height="24.0003" rx="3" fill="#94C1FF" fill-opacity="0.17"></rect><path d="M17.1521 5.3761L16.4161 6.84812L11.2641 9.05615V14.9442L16.4161 17.1523L17.1521 18.6243H18.6242V13.2724C18.8475 13.1434 19.0331 12.958 19.1623 12.7347C19.2915 12.5114 19.3597 12.2581 19.3602 12.0002C19.36 11.742 19.2918 11.4884 19.1627 11.2648C19.0335 11.0413 18.8478 10.8556 18.6242 10.7265V5.3761H17.1521ZM6.848 9.05615C6.03839 9.05615 5.37598 9.71856 5.37598 10.5282V13.4722C5.37598 14.2818 6.03839 14.9442 6.848 14.9442H8.32002V18.6243H9.79204V13.4722V9.05615H6.848Z" fill="#3D6396"></path></svg> 