<?xml version="1.0" encoding="UTF-8"?> <svg xmlns="http://www.w3.org/2000/svg" width="26" height="24" viewBox="0 0 26 24" fill="none"><rect x="0.736328" width="24.7363" height="24.0003" rx="3" fill="#94C1FF" fill-opacity="0.17"></rect><path d="M13.1045 6.00016C12.4016 6.00016 11.6442 7.17676 11.2268 9.00016H14.9822C14.5648 7.17676 13.8074 6.00016 13.1045 6.00016ZM10.9378 6.48649C9.84659 6.99889 8.94073 7.88776 8.34893 9.00016H10.0859C10.2817 8.01736 10.5726 7.16329 10.9378 6.48649ZM15.2712 6.48649C15.6358 7.16329 15.9272 8.01736 16.123 9.00016H17.8601C17.2683 7.88776 16.3624 6.99889 15.2712 6.48649ZM7.85801 10.2002C7.69411 10.769 7.60449 11.3732 7.60449 12.0002C7.60449 12.6272 7.69411 13.2314 7.85801 13.8002H9.90439C9.84169 13.2272 9.80449 12.6278 9.80449 12.0002C9.80449 11.3726 9.84169 10.7732 9.90439 10.2002H7.85801ZM11.0151 10.2002C10.9442 10.7636 10.9045 11.3672 10.9045 12.0002C10.9045 12.6332 10.9442 13.2368 11.0151 13.8002H15.1938C15.2642 13.2368 15.3045 12.6332 15.3045 12.0002C15.3045 11.3672 15.2648 10.7636 15.1938 10.2002H11.0151ZM16.3046 10.2002C16.3673 10.7732 16.4045 11.3726 16.4045 12.0002C16.4045 12.6278 16.3673 13.2272 16.3046 13.8002H18.351C18.5154 13.2314 18.6045 12.6272 18.6045 12.0002C18.6045 11.3732 18.5154 10.769 18.351 10.2002H16.3046ZM8.34893 15.0002C8.94073 16.1126 9.84659 17.0014 10.9378 17.5138C10.5731 16.837 10.2817 15.983 10.0859 15.0002H8.34893ZM11.2268 15.0002C11.6442 16.8236 12.4016 18.0002 13.1045 18.0002C13.8074 18.0002 14.5648 16.8236 14.9822 15.0002H11.2268ZM16.123 15.0002C15.9272 15.983 15.6364 16.837 15.2712 17.5138C16.3624 17.0014 17.2683 16.1126 17.8601 15.0002H16.123Z" fill="#3D6396"></path></svg> 